<svg id="visual" viewBox="0 0 900 600" width="900" height="600" xmlns="http://www.w3.org/2000/svg" xmlns:xlink="http://www.w3.org/1999/xlink" version="1.1"><rect x="0" y="0" width="900" height="600" fill="#002233"></rect><path d="M0 493L16.7 493C33.3 493 66.7 493 100 497.8C133.3 502.7 166.7 512.3 200 510.8C233.3 509.3 266.7 496.7 300 497.3C333.3 498 366.7 512 400 520.3C433.3 528.7 466.7 531.3 500 533.5C533.3 535.7 566.7 537.3 600 536.5C633.3 535.7 666.7 532.3 700 524.7C733.3 517 766.7 505 800 506C833.3 507 866.7 521 883.3 528L900 535L900 601L883.3 601C866.7 601 833.3 601 800 601C766.7 601 733.3 601 700 601C666.7 601 633.3 601 600 601C566.7 601 533.3 601 500 601C466.7 601 433.3 601 400 601C366.7 601 333.3 601 300 601C266.7 601 233.3 601 200 601C166.7 601 133.3 601 100 601C66.7 601 33.3 601 16.7 601L0 601Z" fill="#7175AA" stroke-linecap="round" stroke-linejoin="miter"></path></svg>