<svg id="visual" viewBox="0 0 900 600" width="900" height="600" xmlns="http://www.w3.org/2000/svg" xmlns:xlink="http://www.w3.org/1999/xlink" version="1.1"><rect x="0" y="0" width="900" height="600" fill="#002233"></rect><path d="M0 48L16.7 53.5C33.3 59 66.7 70 100 73.3C133.3 76.7 166.7 72.3 200 70.8C233.3 69.3 266.7 70.7 300 65.7C333.3 60.7 366.7 49.3 400 49.8C433.3 50.3 466.7 62.7 500 64C533.3 65.3 566.7 55.7 600 49.7C633.3 43.7 666.7 41.3 700 44.3C733.3 47.3 766.7 55.7 800 58.3C833.3 61 866.7 58 883.3 56.5L900 55L900 0L883.3 0C866.7 0 833.3 0 800 0C766.7 0 733.3 0 700 0C666.7 0 633.3 0 600 0C566.7 0 533.3 0 500 0C466.7 0 433.3 0 400 0C366.7 0 333.3 0 300 0C266.7 0 233.3 0 200 0C166.7 0 133.3 0 100 0C66.7 0 33.3 0 16.7 0L0 0Z" fill="#7175AA" stroke-linecap="round" stroke-linejoin="miter"></path></svg>